#Comment line ignore any data following # character 
#Hierarchical Translation and Rotation (.htr) file 
[Header]	
#Header keywords are followed by a single value 
FileType HTR		#Single word string
DataType HTRS		#Translation followed by rotation and scale data
FileVersion 1		#integer
NumSegments 84		#integer
NumFrames 2		#integer
DataFrameRate 30		#integer, data frame rate in this file
EulerRotationOrder ZYX
CalibrationUnits mm
RotationUnits Degrees
GlobalAxisofGravity Y
BoneLengthAxis Y
ScaleFactor 1.00
[SegmentNames&Hierarchy]
#CHILD	PARENT
MASTER GLOBAL
root MASTER
chest root
L_mid_tent01 root
R_mid_tent01 root
spine01 root
Bip01_Neck chest
L_humerus chest
R_humerus chest
weapon_bone chest
Bip01_Head Bip01_Neck
eye_left_bone Bip01_Head
eye_right_bone Bip01_Head
L_forearm L_humerus
L_front_hand L_forearm
L_weapon_bone L_forearm
L_front_hand01_01 L_front_hand
L_front_hand02_01 L_front_hand
L_front_hand03_01 L_front_hand
L_front_hand01_02 L_front_hand01_01
L_front_hand02_02 L_front_hand02_01
L_front_hand03_02 L_front_hand03_01
R_forearm R_humerus
R_front_hand R_forearm
R_weapon_bone R_forearm
R_front_hand01_01 R_front_hand
R_front_hand02_01 R_front_hand
R_front_hand03_01 R_front_hand
R_front_hand01_02 R_front_hand01_01
R_front_hand02_02 R_front_hand02_01
R_front_hand03_02 R_front_hand03_01
null_rope01_connect L_mid_tent01
Rope1_Seg01 null_rope01_connect
Rope1_Seg02 Rope1_Seg01
Rope1_Seg03 Rope1_Seg02
Rope1_Seg04 Rope1_Seg03
Rope1_Seg05 Rope1_Seg04
Rope1_Seg06 Rope1_Seg05
Rope1_Seg07 Rope1_Seg06
Rope1_Seg09 Rope1_Seg07
L_mid_hand01 Rope1_Seg09
L_mid_hand02 Rope1_Seg09
L_mid_hand03 Rope1_Seg09
null_rope02_connect R_mid_tent01
Rope2_Seg01 null_rope02_connect
Rope2_Seg02 Rope2_Seg01
Rope2_Seg03 Rope2_Seg02
Rope2_Seg04 Rope2_Seg03
Rope2_Seg05 Rope2_Seg04
Rope2_Seg06 Rope2_Seg05
Rope2_Seg07 Rope2_Seg06
Rope2_Seg09 Rope2_Seg07
R_mid_hand01 Rope2_Seg09
R_mid_hand02 Rope2_Seg09
R_mid_hand03 Rope2_Seg09
spine02 spine01
spine03 spine02
pelvis spine03
null_rope03_connect pelvis
null_rope04_connect pelvis
Rope3_Seg01 null_rope03_connect
Rope3_Seg02 Rope3_Seg01
Rope3_Seg03 Rope3_Seg02
Rope3_Seg04 Rope3_Seg03
Rope3_Seg05 Rope3_Seg04
Rope3_Seg06 Rope3_Seg05
Rope3_Seg07 Rope3_Seg06
Rope3_Seg08 Rope3_Seg07
Rope3_Seg09 Rope3_Seg08
R_rear_hand01 Rope3_Seg09
R_rear_hand02 Rope3_Seg09
R_rear_hand03 Rope3_Seg09
Rope4_Seg01 null_rope04_connect
Rope4_Seg02 Rope4_Seg01
Rope4_Seg03 Rope4_Seg02
Rope4_Seg04 Rope4_Seg03
Rope4_Seg05 Rope4_Seg04
Rope4_Seg06 Rope4_Seg05
Rope4_Seg07 Rope4_Seg06
Rope4_Seg08 Rope4_Seg07
Rope4_Seg09 Rope4_Seg08
L_rear_hand01 Rope4_Seg09
L_rear_hand02 Rope4_Seg09
L_rear_hand03 Rope4_Seg09
[BasePosition]
#SegmentName Tx, Ty, Tz, Rx, Ry, Rz, BoneLength
MASTER 0.000000 0.000000 0.000000 -90.000000 0.000000 0.000000 10.000000 
root 0.000000 0.000000 0.000000 0.000000 0.000000 0.000000 10.000000 
chest 0.000000 0.000000 0.000000 0.000000 0.000000 0.000000 10.000000 
L_mid_tent01 0.000000 0.000000 0.000000 0.000000 0.000000 0.000000 10.000000 
R_mid_tent01 0.000000 0.000000 0.000000 0.000000 0.000000 0.000000 10.000000 
spine01 0.000000 0.000000 0.000000 0.000000 0.000000 0.000000 10.000000 
Bip01_Neck 0.000000 0.000000 0.000000 0.000000 0.000000 0.000000 10.000000 
L_humerus 0.000000 0.000000 0.000000 0.000000 0.000000 0.000000 10.000000 
R_humerus 0.000000 0.000000 0.000000 0.000000 0.000000 0.000000 10.000000 
weapon_bone 0.000000 0.000000 0.000000 0.000000 0.000000 0.000000 10.000000 
Bip01_Head 0.000000 0.000000 0.000000 0.000000 0.000000 0.000000 10.000000 
eye_left_bone 0.000000 0.000000 0.000000 0.000000 0.000000 0.000000 10.000000 
eye_right_bone 0.000000 0.000000 0.000000 0.000000 0.000000 0.000000 10.000000 
L_forearm 0.000000 0.000000 0.000000 0.000000 0.000000 0.000000 10.000000 
L_front_hand 0.000000 0.000000 0.000000 0.000000 0.000000 0.000000 10.000000 
L_weapon_bone 0.000000 0.000000 0.000000 0.000000 0.000000 0.000000 10.000000 
L_front_hand01_01 0.000000 0.000000 0.000000 0.000000 0.000000 0.000000 10.000000 
L_front_hand02_01 0.000000 0.000000 0.000000 0.000000 0.000000 0.000000 10.000000 
L_front_hand03_01 0.000000 0.000000 0.000000 0.000000 0.000000 0.000000 10.000000 
L_front_hand01_02 0.000000 0.000000 0.000000 0.000000 0.000000 0.000000 10.000000 
L_front_hand02_02 0.000000 0.000000 0.000000 0.000000 0.000000 0.000000 10.000000 
L_front_hand03_02 0.000000 0.000000 0.000000 0.000000 0.000000 0.000000 10.000000 
R_forearm 0.000000 0.000000 0.000000 0.000000 0.000000 0.000000 10.000000 
R_front_hand 0.000000 0.000000 0.000000 0.000000 0.000000 0.000000 10.000000 
R_weapon_bone 0.000000 0.000000 0.000000 0.000000 0.000000 0.000000 10.000000 
R_front_hand01_01 0.000000 0.000000 0.000000 0.000000 0.000000 0.000000 10.000000 
R_front_hand02_01 0.000000 0.000000 0.000000 0.000000 0.000000 0.000000 10.000000 
R_front_hand03_01 0.000000 0.000000 0.000000 0.000000 0.000000 0.000000 10.000000 
R_front_hand01_02 0.000000 0.000000 0.000000 0.000000 0.000000 0.000000 10.000000 
R_front_hand02_02 0.000000 0.000000 0.000000 0.000000 0.000000 0.000000 10.000000 
R_front_hand03_02 0.000000 0.000000 0.000000 0.000000 0.000000 0.000000 10.000000 
null_rope01_connect 0.000000 0.000000 0.000000 0.000000 0.000000 0.000000 10.000000 
Rope1_Seg01 0.000000 0.000000 0.000000 0.000000 0.000000 0.000000 10.000000 
Rope1_Seg02 0.000000 0.000000 0.000000 0.000000 0.000000 0.000000 10.000000 
Rope1_Seg03 0.000000 0.000000 0.000000 0.000000 0.000000 0.000000 10.000000 
Rope1_Seg04 0.000000 0.000000 0.000000 0.000000 0.000000 0.000000 10.000000 
Rope1_Seg05 0.000000 0.000000 0.000000 0.000000 0.000000 0.000000 10.000000 
Rope1_Seg06 0.000000 0.000000 0.000000 0.000000 0.000000 0.000000 10.000000 
Rope1_Seg07 0.000000 0.000000 0.000000 0.000000 0.000000 0.000000 10.000000 
Rope1_Seg09 0.000000 0.000000 0.000000 0.000000 0.000000 0.000000 10.000000 
L_mid_hand01 0.000000 0.000000 0.000000 0.000000 0.000000 0.000000 10.000000 
L_mid_hand02 0.000000 0.000000 0.000000 0.000000 0.000000 0.000000 10.000000 
L_mid_hand03 0.000000 0.000000 0.000000 0.000000 0.000000 0.000000 10.000000 
null_rope02_connect 0.000000 0.000000 0.000000 0.000000 0.000000 0.000000 10.000000 
Rope2_Seg01 0.000000 0.000000 0.000000 0.000000 0.000000 0.000000 10.000000 
Rope2_Seg02 0.000000 0.000000 0.000000 0.000000 0.000000 0.000000 10.000000 
Rope2_Seg03 0.000000 0.000000 0.000000 0.000000 0.000000 0.000000 10.000000 
Rope2_Seg04 0.000000 0.000000 0.000000 0.000000 0.000000 0.000000 10.000000 
Rope2_Seg05 0.000000 0.000000 0.000000 0.000000 0.000000 0.000000 10.000000 
Rope2_Seg06 0.000000 0.000000 0.000000 0.000000 0.000000 0.000000 10.000000 
Rope2_Seg07 0.000000 0.000000 0.000000 0.000000 0.000000 0.000000 10.000000 
Rope2_Seg09 0.000000 0.000000 0.000000 0.000000 0.000000 0.000000 10.000000 
R_mid_hand01 0.000000 0.000000 0.000000 0.000000 0.000000 0.000000 10.000000 
R_mid_hand02 0.000000 0.000000 0.000000 0.000000 0.000000 0.000000 10.000000 
R_mid_hand03 0.000000 0.000000 0.000000 0.000000 0.000000 0.000000 10.000000 
spine02 0.000000 0.000000 0.000000 0.000000 0.000000 0.000000 10.000000 
spine03 0.000000 0.000000 0.000000 0.000000 0.000000 0.000000 10.000000 
pelvis 0.000000 0.000000 0.000000 0.000000 0.000000 0.000000 10.000000 
null_rope03_connect 0.000000 0.000000 0.000000 0.000000 0.000000 0.000000 10.000000 
null_rope04_connect 0.000000 0.000000 0.000000 0.000000 0.000000 0.000000 10.000000 
Rope3_Seg01 0.000000 0.000000 0.000000 0.000000 0.000000 0.000000 10.000000 
Rope3_Seg02 0.000000 0.000000 0.000000 0.000000 0.000000 0.000000 10.000000 
Rope3_Seg03 0.000000 0.000000 0.000000 0.000000 0.000000 0.000000 10.000000 
Rope3_Seg04 0.000000 0.000000 0.000000 0.000000 0.000000 0.000000 10.000000 
Rope3_Seg05 0.000000 0.000000 0.000000 0.000000 0.000000 0.000000 10.000000 
Rope3_Seg06 0.000000 0.000000 0.000000 0.000000 0.000000 0.000000 10.000000 
Rope3_Seg07 0.000000 0.000000 0.000000 0.000000 0.000000 0.000000 10.000000 
Rope3_Seg08 0.000000 0.000000 0.000000 0.000000 0.000000 0.000000 10.000000 
Rope3_Seg09 0.000000 0.000000 0.000000 0.000000 0.000000 0.000000 10.000000 
R_rear_hand01 0.000000 0.000000 0.000000 0.000000 0.000000 0.000000 10.000000 
R_rear_hand02 0.000000 0.000000 0.000000 0.000000 0.000000 0.000000 10.000000 
R_rear_hand03 0.000000 0.000000 0.000000 0.000000 0.000000 0.000000 10.000000 
Rope4_Seg01 0.000000 0.000000 0.000000 0.000000 0.000000 0.000000 10.000000 
Rope4_Seg02 0.000000 0.000000 0.000000 0.000000 0.000000 0.000000 10.000000 
Rope4_Seg03 0.000000 0.000000 0.000000 0.000000 0.000000 0.000000 10.000000 
Rope4_Seg04 0.000000 0.000000 0.000000 0.000000 0.000000 0.000000 10.000000 
Rope4_Seg05 0.000000 0.000000 0.000000 0.000000 0.000000 0.000000 10.000000 
Rope4_Seg06 0.000000 0.000000 0.000000 0.000000 0.000000 0.000000 10.000000 
Rope4_Seg07 0.000000 0.000000 0.000000 0.000000 0.000000 0.000000 10.000000 
Rope4_Seg08 0.000000 0.000000 0.000000 0.000000 0.000000 0.000000 10.000000 
Rope4_Seg09 0.000000 0.000000 0.000000 0.000000 0.000000 0.000000 10.000000 
L_rear_hand01 0.000000 0.000000 0.000000 0.000000 0.000000 0.000000 10.000000 
L_rear_hand02 0.000000 0.000000 0.000000 0.000000 0.000000 0.000000 10.000000 
L_rear_hand03 0.000000 0.000000 0.000000 0.000000 0.000000 0.000000 10.000000 
#Beginning of Data. Separated by tabs
#Fr	Tx	Ty	Tz	Rx	Ry	Rz	SF
[MASTER]
114 -0.000074 554.566467 0.000000 0.001660 0.001660 0.001660 554.566467
115 -0.000074 554.566467 0.000000 0.001660 0.001660 0.001660 554.566467
[root]
114 5.202088 927.960022 1562.789429 -95.229355 -24.355854 -96.179398 1817.538940
115 28.841045 972.753967 1575.702393 -95.211723 -24.355713 -96.188713 1852.004395
[chest]
114 -84.512650 -34.090519 0.000000 -2.158707 3.088602 156.282059 91.129311
115 -84.512650 -34.090519 0.000000 -0.655855 4.292078 163.635010 91.129311
[L_mid_tent01]
114 27.567736 22.023842 -251.641190 9.404200 13.235477 76.468636 254.102966
115 27.561293 22.027533 -251.599792 9.386234 13.161694 76.435852 254.061600
[R_mid_tent01]
114 23.228794 24.509907 226.238495 153.326904 -13.960542 87.422775 228.744751
115 23.228794 24.509907 226.238495 153.361282 -12.629808 87.504684 228.744751
[spine01]
114 -0.361383 -0.195265 0.000000 0.001869 0.001420 15.534141 0.410763
115 -0.361383 -0.195265 0.000000 0.001869 0.001420 15.534141 0.410763
[Bip01_Neck]
114 165.484543 71.581718 0.000119 175.896118 1.177290 24.871183 180.302734
115 165.484543 71.581718 0.000119 175.896118 1.177290 24.871183 180.302734
[L_humerus]
114 -13.983130 -135.272980 -120.471481 166.834824 2.284560 -110.687645 181.680161
115 -13.983130 -135.272980 -120.471481 166.808640 1.057495 -115.344124 181.680161
[R_humerus]
114 -13.983309 -135.273102 125.287651 179.932861 -4.584795 -117.576561 184.909012
115 -13.983309 -135.273102 125.287651 -179.806885 -4.697198 -117.538025 184.909012
[weapon_bone]
114 235.964890 -300.705902 0.000000 0.000000 -89.951546 -128.212341 382.234833
115 235.964890 -300.705902 0.000000 0.000000 -89.951546 -128.212341 382.234833
[Bip01_Head]
114 184.188995 154.207687 13.271708 -23.301260 2.901101 -54.703712 240.586227
115 184.255676 155.334808 13.344518 -23.748423 3.040032 -54.368614 241.365143
[eye_left_bone]
114 -24.626970 125.451866 -64.772606 0.000000 -90.000000 -99.840431 143.318359
115 -24.626970 125.451866 -64.772606 0.000000 -90.000000 -99.840431 143.318359
[eye_right_bone]
114 -24.626970 125.451866 64.327362 0.000000 -89.960434 80.159386 143.117676
115 -24.626970 125.451866 64.327362 0.000000 -89.960434 80.159386 143.117676
[L_forearm]
114 322.776093 0.000000 -0.000119 0.000232 -0.002336 -101.321457 322.776093
115 322.776093 0.000000 -0.000119 0.000310 -0.002327 -105.163857 322.776093
[L_front_hand]
114 241.149185 -0.042021 -3.300071 -178.713303 -1.867450 -25.962910 241.171753
115 241.149185 -0.042021 -3.300071 -178.703857 -1.863128 -26.247377 241.171753
[L_weapon_bone]
114 156.183838 0.000000 0.000000 0.000014 0.000007 0.000001 156.183838
115 156.183838 0.000000 0.000000 0.000014 0.000007 0.000001 156.183838
[L_front_hand01_01]
114 86.095154 20.947098 -0.655860 -0.366593 -0.477155 75.385406 88.609184
115 86.095154 20.947098 -0.655860 -0.366594 -0.477154 75.385574 88.609184
[L_front_hand02_01]
114 86.935165 -11.437475 24.513514 154.403244 -59.888863 -61.371689 91.046425
115 86.935165 -11.437475 24.513514 154.403519 -59.888931 -61.371983 91.046425
[L_front_hand03_01]
114 86.637497 -14.123976 -20.424902 -153.913620 58.118053 -62.702591 90.126129
115 86.637497 -14.123976 -20.424902 -153.913849 58.118122 -62.702866 90.126129
[L_front_hand01_02]
114 71.020905 -0.000179 0.000030 0.000334 -0.002323 -106.379684 71.020905
115 71.020905 -0.000179 0.000030 0.000334 -0.002323 -106.379684 71.020905
[L_front_hand02_02]
114 71.020927 -0.000119 0.000060 0.000334 -0.002323 -106.379684 71.020927
115 71.020927 -0.000119 0.000060 0.000334 -0.002323 -106.379684 71.020927
[L_front_hand03_02]
114 71.020905 -0.000060 0.000060 0.000334 -0.002323 -106.379684 71.020905
115 71.020905 -0.000060 0.000060 0.000334 -0.002323 -106.379684 71.020905
[R_forearm]
114 322.776428 -0.000060 0.000030 0.212363 0.021826 -97.363930 322.776428
115 322.776428 -0.000060 0.000030 0.208365 0.027356 -98.609215 322.776428
[R_front_hand]
114 238.847015 -0.006795 2.210259 -116.534431 0.789243 -51.441441 238.857239
115 238.847015 -0.006795 2.210259 -116.534431 0.789243 -51.441441 238.857239
[R_weapon_bone]
114 155.664093 0.002503 -0.000030 0.003487 0.001180 -90.988930 155.664078
115 155.664093 0.002503 -0.000030 0.003487 0.001180 -90.988930 155.664078
[R_front_hand01_01]
114 87.624611 14.231146 22.918642 -154.633499 -59.950619 61.746044 91.683487
115 87.624611 14.231146 22.918642 -154.633514 -59.950634 61.746063 91.683487
[R_front_hand02_01]
114 89.356956 14.367283 -19.491137 154.602661 58.302849 63.744389 92.579636
115 89.356956 14.367283 -19.491137 154.602661 58.302849 63.744389 92.579636
[R_front_hand03_01]
114 87.286232 -22.307278 -0.143439 0.162155 -0.423168 -75.767921 90.091743
115 87.286232 -22.307278 -0.143439 0.162155 -0.423168 -75.767921 90.091743
[R_front_hand01_02]
114 71.020905 0.000060 0.000119 0.002323 -0.000334 106.381714 71.020905
115 71.020905 0.000060 0.000119 0.002323 -0.000334 106.381714 71.020905
[R_front_hand02_02]
114 71.020844 -0.000030 -0.000119 0.002323 -0.000334 106.381714 71.020836
115 71.020844 -0.000030 -0.000119 0.002323 -0.000334 106.381714 71.020836
[R_front_hand03_02]
114 71.020905 0.000000 0.000030 0.002323 -0.000334 106.381714 71.020905
115 71.020905 0.000000 0.000030 0.002323 -0.000334 106.381714 71.020905
[null_rope01_connect]
114 328.732483 0.000000 -0.000238 -111.282822 -64.390114 150.329987 328.732483
115 328.732483 0.000000 -0.000238 -111.187958 -64.461746 150.252182 328.732483
[Rope1_Seg01]
114 6.640518 -4.460755 0.112059 36.584545 61.278122 -132.890915 8.000461
115 6.645912 -4.452363 0.129882 34.081604 59.512287 -135.616501 8.000534
[Rope1_Seg02]
114 139.999863 -0.000179 0.000000 0.125095 -0.010897 2.390571 139.999863
115 139.999863 -0.000179 0.000000 0.204992 0.516907 2.307462 139.999863
[Rope1_Seg03]
114 139.999924 0.000060 -0.000060 0.273432 -0.011729 3.503695 139.999924
115 139.999924 0.000060 -0.000060 0.396103 0.781453 3.422444 139.999924
[Rope1_Seg04]
114 139.999924 -0.000060 -0.000119 1.749784 -0.019933 11.779406 139.999924
115 139.999924 -0.000060 -0.000119 1.833741 1.861369 10.047088 139.999924
[Rope1_Seg05]
114 139.999832 0.000119 -0.000060 4.748172 0.480664 15.821790 139.999832
115 139.999832 0.000119 -0.000060 8.199001 4.666378 22.072664 139.999832
[Rope1_Seg06]
114 139.999954 0.000119 -0.000060 -2.740667 -5.000373 -56.084984 139.999954
115 139.999954 0.000119 -0.000060 -1.756682 -10.494824 -53.972679 139.999954
[Rope1_Seg07]
114 139.999985 0.000060 0.000000 7.053313 -0.246560 -23.804741 139.999985
115 139.999985 0.000060 0.000000 7.227057 -2.668498 -26.139502 139.999985
[Rope1_Seg09]
114 121.602913 0.000119 -0.000089 -89.793175 -1.359789 0.847147 121.602913
115 121.602913 0.000119 -0.000089 -89.793175 -1.359789 0.847147 121.602913
[L_mid_hand01]
114 103.859421 1.038730 8.195221 116.294914 -23.111713 -31.758034 104.187431
115 103.859421 1.038730 8.195221 116.294914 -23.111713 -31.758034 104.187431
[L_mid_hand02]
114 105.572853 -4.139662 -10.864139 -144.219833 17.447468 -35.360519 106.211075
115 105.572853 -4.139662 -10.864139 -144.219833 17.447468 -35.360519 106.211075
[L_mid_hand03]
114 104.641464 17.579376 -3.913581 -17.830778 17.153101 31.982922 106.179977
115 104.641464 17.579376 -3.913581 -17.830780 17.153103 31.982925 106.179977
[null_rope02_connect]
114 328.732849 0.000179 -0.000119 -77.126534 67.861687 74.165207 328.732849
115 328.732849 0.000179 -0.000119 -74.212471 68.198380 77.528351 328.732849
[Rope2_Seg01]
114 0.000014 0.000268 0.000000 -53.529175 73.144432 -125.585228 0.000268
115 0.000014 0.000269 0.000000 -67.339500 73.589577 -139.969681 0.000269
[Rope2_Seg02]
114 139.999741 -0.000060 -0.000119 -1.585704 8.234929 1.439705 139.999756
115 139.999741 -0.000060 -0.000119 -2.093430 8.487587 1.577438 139.999756
[Rope2_Seg03]
114 140.000107 0.000030 0.000000 -5.386738 16.243795 3.409280 140.000107
115 140.000107 0.000030 0.000000 -7.260838 17.332979 4.018076 140.000107
[Rope2_Seg04]
114 139.999802 0.000000 -0.000060 -29.739214 34.232559 13.319852 139.999802
115 139.999802 0.000000 -0.000060 -38.403736 35.600155 16.727999 139.999802
[Rope2_Seg05]
114 139.999985 -0.000060 0.000119 -36.299583 17.192129 21.358660 139.999985
115 139.999985 -0.000060 0.000119 -33.297268 12.025106 23.974386 139.999985
[Rope2_Seg06]
114 139.999893 -0.000030 -0.000119 -13.603777 2.584283 11.045904 139.999893
115 139.999893 -0.000030 -0.000119 -11.958231 0.800072 12.444509 139.999893
[Rope2_Seg07]
114 139.999893 0.000060 -0.000060 -8.799605 -1.032967 9.626246 139.999893
115 139.999893 0.000060 -0.000060 -6.954211 -2.431924 10.023932 139.999893
[Rope2_Seg09]
114 121.338966 0.000089 -0.000060 33.793236 -1.359788 -0.847141 121.338966
115 121.338966 0.000089 -0.000060 33.793236 -1.359788 -0.847141 121.338966
[R_mid_hand01]
114 104.680779 11.144459 -10.335981 -41.523792 25.424656 28.595957 105.778534
115 104.680779 11.144459 -10.335981 -41.523792 25.424656 28.595957 105.778534
[R_mid_hand02]
114 104.070427 2.443552 8.231699 72.847389 -32.746803 10.013901 104.424065
115 104.070427 2.443552 8.231699 72.847389 -32.746803 10.013901 104.424065
[R_mid_hand03]
114 106.028137 -11.221827 -5.996406 -167.901306 10.259192 -37.009720 106.788818
115 106.028137 -11.221827 -5.996406 -167.901306 10.259192 -37.009720 106.788818
[spine02]
114 129.756927 0.001550 0.000119 -0.245322 -4.052060 -4.355547 129.756927
115 129.756927 0.001550 0.000119 -0.245322 -4.052060 -4.355547 129.756927
[spine03]
114 78.613846 0.087372 -4.898873 0.369659 4.260734 -4.885720 78.766380
115 78.613846 0.087372 -4.898873 0.369659 4.260734 -4.885720 78.766380
[pelvis]
114 169.435242 0.051022 0.000000 -0.010007 -0.191417 -1.897554 169.435257
115 169.435242 0.051022 0.000000 -0.010007 -0.191417 -1.897554 169.435257
[null_rope03_connect]
114 -1.257226 -2.466202 137.391083 -117.946426 -80.725449 -132.319092 137.418976
115 -1.257226 -2.466202 137.391083 -117.864029 -80.734375 -132.405304 137.418976
[null_rope04_connect]
114 -1.259640 -2.480268 -137.844437 -117.946426 -80.725449 -132.319092 137.872513
115 -1.259640 -2.480268 -137.844437 -117.864029 -80.734375 -132.405304 137.872513
[Rope3_Seg01]
114 0.000000 0.000000 0.000000 21.159386 -25.871454 -84.213318 0.000000
115 0.000000 0.000000 0.000000 22.653419 -23.241739 -90.171585 0.000000
[Rope3_Seg02]
114 139.999924 -0.000119 0.000060 0.365691 0.574266 3.525452 139.999924
115 139.999924 -0.000119 0.000060 0.461322 0.645951 3.422328 139.999924
[Rope3_Seg03]
114 139.999924 -0.000119 0.000119 0.420345 1.092372 6.498240 139.999924
115 139.999924 -0.000119 0.000119 0.610564 1.245837 6.337525 139.999924
[Rope3_Seg04]
114 139.999924 0.000119 0.000000 -0.156296 3.039372 17.685492 139.999924
115 139.999924 0.000119 0.000000 0.533210 3.583131 17.653856 139.999924
[Rope3_Seg05]
114 139.999924 -0.000238 0.000060 -36.429699 7.557448 63.936855 139.999924
115 139.999924 -0.000238 0.000060 -29.511875 9.822795 65.945786 139.999924
[Rope3_Seg06]
114 139.999893 -0.000119 -0.000060 -61.604092 -14.645838 25.440929 139.999893
115 139.999893 -0.000119 -0.000060 -65.785583 -11.183291 26.803883 139.999893
[Rope3_Seg07]
114 139.999771 0.000060 -0.000119 -20.278660 -16.730032 2.450940 139.999771
115 139.999771 0.000060 -0.000119 -24.296593 -17.172602 3.407898 139.999771
[Rope3_Seg08]
114 139.999985 -0.000060 0.000000 -9.904082 -19.279997 -4.578228 139.999985
115 139.999985 -0.000060 0.000000 -10.904798 -20.011616 -5.170368 139.999985
[Rope3_Seg09]
114 90.185997 -0.000179 -0.000060 89.793228 -1.359877 -0.847183 90.185997
115 90.185997 -0.000179 -0.000060 89.793228 -1.359877 -0.847183 90.185997
[R_rear_hand01]
114 103.366196 -6.073594 -10.757982 -161.551193 16.666374 -30.088671 104.101845
115 103.366196 -6.073594 -10.757982 -161.551193 16.666374 -30.088671 104.101845
[R_rear_hand02]
114 100.509819 12.039542 -7.992327 -34.280552 19.289745 28.875523 101.543350
115 100.509819 12.039542 -7.992327 -34.280552 19.289745 28.875523 101.543350
[R_rear_hand03]
114 101.539970 5.215704 5.435467 83.366440 -30.933914 7.284830 101.819031
115 101.539970 5.215704 5.435467 83.366440 -30.933914 7.284830 101.819031
[Rope4_Seg01]
114 -0.000009 -0.000019 0.000038 -115.168602 -34.820255 -81.183823 0.000043
115 -0.000009 -0.000018 0.000037 -119.868248 -29.794306 -66.579239 0.000042
[Rope4_Seg02]
114 139.999985 0.000060 0.000119 -0.386275 11.950614 3.611933 139.999985
115 139.999985 0.000060 0.000119 -2.337895 12.201823 1.567771 139.999985
[Rope4_Seg03]
114 139.999924 0.000000 -0.000238 2.371709 27.544313 9.316207 139.999924
115 139.999924 0.000000 -0.000238 -0.504833 28.934130 5.384984 139.999924
[Rope4_Seg04]
114 139.999985 0.000000 0.000119 10.736834 36.720608 11.973232 139.999985
115 139.999985 0.000000 0.000119 8.006363 38.917133 8.235106 139.999985
[Rope4_Seg05]
114 139.999802 -0.000060 -0.000119 11.265192 16.894981 3.548870 139.999802
115 139.999802 -0.000060 -0.000119 7.669664 17.051029 2.300885 139.999802
[Rope4_Seg06]
114 139.999924 0.000000 0.000060 121.186859 30.168222 3.481296 139.999924
115 139.999924 0.000000 0.000060 57.258678 30.589125 2.948038 139.999924
[Rope4_Seg07]
114 139.999802 0.000000 0.000000 35.733883 -16.336815 -40.950291 139.999802
115 139.999802 0.000000 0.000000 74.648010 26.290722 -38.080921 139.999802
[Rope4_Seg08]
114 139.999924 0.000000 0.000119 0.685898 -12.171409 -8.833806 139.999924
115 139.999924 0.000000 0.000119 2.853317 -10.765861 -10.592032 139.999924
[Rope4_Seg09]
114 90.185791 0.000060 0.000060 -135.617828 2.228885 0.850567 90.185791
115 90.185791 0.000060 0.000060 -135.617828 2.228885 0.850567 90.185791
[L_rear_hand01]
114 101.696655 -8.392275 -7.654577 -34.454281 -18.946800 151.655121 102.329041
115 101.696655 -8.392275 -7.654577 -34.454281 -18.946800 151.655121 102.329041
[L_rear_hand02]
114 102.726799 -1.568258 5.773216 83.407906 30.330435 172.796509 102.900848
115 102.726799 -1.568258 5.773216 83.407906 30.330435 172.796509 102.900848
[L_rear_hand03]
114 104.552910 9.721220 -10.420293 -161.379868 -16.473232 -150.512238 105.519653
115 104.552910 9.721220 -10.420293 -161.379868 -16.473232 -150.512238 105.519653
